<svg width="512" height="512" viewBox="0 0 512 512" fill="none" xmlns="http://www.w3.org/2000/svg">
<g clip-path="url(#clip0_6_3)" filter="url(#filter0_d_6_3)">
<g filter="url(#filter1_dddddd_6_3)">
<circle cx="256" cy="256" r="212" fill="white"/>
</g>
<g clip-path="url(#clip1_6_3)">
<path d="M90.5152 346.742C95.7128 390.137 148.009 422.857 212.162 422.857C269.838 422.857 318.832 396.24 331.323 358.127L331.334 358.108C333.289 352.224 334.298 346.072 334.325 339.874C334.295 338.006 334.165 336.143 333.934 334.291L333.869 333.7V333.697C331.597 317.272 323.461 302.227 310.956 291.335C325.193 297.601 340.534 300.966 356.086 301.24C368.998 301.481 381.741 298.282 393.007 291.972L393.012 291.964C397.337 289.508 401.322 286.498 404.866 283.009C407.531 280.295 409.912 277.318 411.978 274.124L411.983 274.116C435.404 238.873 420.418 179.647 377.121 136.352C337.028 96.2593 281.906 79.9506 246.041 97.5798C240.274 100.37 235.006 104.09 230.448 108.591C228.786 110.293 227.235 112.099 225.801 114L225.798 114.002C199.118 148.358 213.355 210.407 258.212 255.264C262.645 259.683 267.309 263.867 272.178 267.798C253.014 260.507 232.668 256.809 212.162 256.89C154.885 256.89 104.66 284.402 92.7385 322.307C90.9381 327.987 90.0136 333.912 90 339.874C90.0325 342.17 90.2034 344.461 90.5124 346.739L90.5152 346.742ZM212.162 411.752C158.147 411.752 112.041 386.105 102.863 352.221C103.082 352.243 103.307 352.267 103.521 352.289C105.506 352.514 107.396 352.761 109.161 353.043C109.419 353.084 109.657 353.13 109.912 353.173C111.561 353.447 113.133 353.742 114.649 354.057C114.901 354.108 115.164 354.157 115.416 354.211C117.038 354.558 118.602 354.922 120.139 355.299C120.473 355.38 120.804 355.464 121.132 355.545C122.612 355.917 124.076 356.291 125.554 356.676C139.87 360.738 154.706 362.665 169.583 362.394C184.444 362.668 199.265 360.735 213.559 356.663C226.937 352.821 240.816 351.009 254.731 351.289C268.651 351.009 282.535 352.821 295.919 356.66C297.31 357.02 298.719 357.384 300.151 357.744C300.482 357.828 300.813 357.91 301.146 357.994C302.664 358.371 304.224 358.739 305.845 359.095C306.043 359.138 306.254 359.179 306.455 359.222C307.954 359.542 309.519 359.848 311.151 360.138C311.441 360.19 311.718 360.244 312.011 360.293C313.781 360.597 315.652 360.871 317.628 361.12C317.805 361.144 317.951 361.174 318.13 361.196C303.779 390.858 260.766 411.752 212.162 411.752V411.752ZM369.269 144.207C405.647 180.588 420.877 230.365 406.317 261.57C406.167 261.397 406.016 261.223 405.872 261.05C404.4 259.317 403.036 257.644 401.821 256.055C401.713 255.914 401.621 255.781 401.515 255.643C400.357 254.114 399.3 252.639 398.31 251.202C398.15 250.969 397.982 250.73 397.825 250.5C396.816 249.011 395.872 247.555 394.964 246.113C394.791 245.836 394.62 245.562 394.446 245.286C393.571 243.881 392.714 242.482 391.854 241.07C384.417 228.191 375.114 216.486 364.253 206.332C353.782 195.793 341.8 186.867 328.707 179.85C316.435 173.297 305.219 164.943 295.428 155.063C285.252 145.579 276.554 134.622 269.624 122.562C268.919 121.399 268.201 120.222 267.468 119.037L266.907 118.134C266.121 116.871 265.31 115.591 264.443 114.276C264.348 114.13 264.242 113.978 264.144 113.832C263.361 112.649 262.526 111.437 261.639 110.193C261.433 109.906 261.235 109.621 261.024 109.328C260.034 107.962 258.977 106.554 257.827 105.096C257.751 104.995 257.689 104.906 257.61 104.808C289.341 94.1337 334.921 109.857 369.269 144.207V144.207ZM238.3 116.443C240.968 113.799 243.953 111.494 247.185 109.586C247.28 109.697 247.358 109.803 247.451 109.914C248.676 111.405 249.791 112.831 250.829 114.214C250.997 114.439 251.179 114.672 251.344 114.894C252.383 116.304 253.337 117.668 254.24 119.002C254.419 119.268 254.598 119.531 254.771 119.794C255.652 121.117 256.496 122.421 257.301 123.712C257.447 123.945 257.591 124.178 257.735 124.411C258.543 125.715 259.334 127.011 260.132 128.326C267.555 141.192 276.844 152.889 287.695 163.034C298.166 173.571 310.148 182.496 323.241 189.516C335.512 196.067 346.729 204.42 356.52 214.303C366.709 223.798 375.421 234.766 382.367 246.839C382.939 247.778 383.514 248.721 384.097 249.673C384.295 249.993 384.501 250.321 384.702 250.643C385.111 251.302 385.521 251.961 385.944 252.628C386.193 253.021 386.456 253.42 386.711 253.816C387.109 254.437 387.513 255.058 387.936 255.692C388.218 256.115 388.514 256.549 388.809 256.98C389.23 257.598 389.663 258.224 390.111 258.859C390.436 259.317 390.772 259.783 391.111 260.252C391.572 260.884 392.047 261.527 392.54 262.177C392.912 262.668 393.291 263.167 393.682 263.669C394.194 264.328 394.736 265.003 395.287 265.683C395.707 266.204 396.127 266.724 396.575 267.259C397.155 267.958 397.779 268.679 398.405 269.403C398.887 269.959 399.357 270.509 399.864 271.079C399.988 271.22 400.094 271.35 400.221 271.491C399.229 272.776 398.158 274.002 397.014 275.157C395.219 276.935 393.267 278.551 391.182 279.986L390.989 279.774C390.634 279.37 390.317 278.988 389.978 278.595C389.335 277.849 388.696 277.109 388.104 276.393C387.738 275.948 387.397 275.52 387.047 275.086C386.535 274.446 386.028 273.812 385.55 273.194C385.209 272.752 384.883 272.321 384.558 271.887C384.116 271.298 383.685 270.716 383.27 270.141C382.964 269.72 382.665 269.303 382.375 268.888C381.969 268.311 381.573 267.738 381.191 267.172C380.928 266.784 380.662 266.396 380.407 266.011C380.019 265.423 379.64 264.84 379.265 264.26C379.038 263.907 378.807 263.552 378.585 263.2C378.184 262.568 377.793 261.939 377.405 261.313C377.221 261.017 377.034 260.719 376.852 260.421C376.302 259.526 375.754 258.631 375.209 257.734C367.764 244.855 358.459 233.147 347.594 222.99C337.123 212.451 325.142 203.526 312.048 196.509C299.777 189.958 288.56 181.602 278.769 171.722C268.586 162.229 259.879 151.267 252.938 139.202C252.082 137.794 251.206 136.368 250.311 134.926C250.121 134.622 249.934 134.319 249.742 134.012C248.828 132.559 247.857 131.073 246.83 129.549C246.616 129.229 246.396 128.909 246.174 128.587C245.103 127.028 243.95 125.423 242.687 123.75C242.475 123.473 242.248 123.186 242.033 122.906C240.664 121.125 239.197 119.292 237.533 117.345L237.489 117.291C237.758 116.998 238.026 116.716 238.3 116.443V116.443ZM266.064 247.412C227.579 208.924 213.041 157.522 230.741 126.545C230.873 126.708 231.014 126.873 231.145 127.033C232.338 128.503 233.452 129.923 234.469 131.293C234.661 131.55 234.835 131.8 235.022 132.055C235.938 133.31 236.8 134.535 237.608 135.731C237.752 135.948 237.907 136.165 238.048 136.379C238.94 137.716 239.78 139.028 240.596 140.332C240.775 140.617 240.949 140.899 241.125 141.181C241.906 142.442 242.676 143.7 243.449 144.971C250.883 157.839 260.18 169.542 271.037 179.693C281.508 190.229 293.489 199.155 306.582 206.172C318.854 212.725 330.071 221.079 339.861 230.959C350.053 240.46 358.77 251.43 365.722 263.503C366.576 264.908 367.449 266.326 368.341 267.763C368.55 268.099 368.756 268.433 368.97 268.769C369.9 270.244 370.879 271.751 371.929 273.299C372.14 273.611 372.365 273.931 372.582 274.248C373.669 275.824 374.822 277.44 376.109 279.134L376.275 279.362C377.582 281.073 379.062 282.884 380.64 284.752C380.843 284.991 380.993 285.202 381.201 285.446C349.682 298.491 301.697 283.036 266.064 247.412V247.412ZM212.162 267.996C266.658 267.996 312.856 293.922 321.609 328.158C321.392 328.134 321.169 328.112 320.958 328.09C318.941 327.865 317.021 327.616 315.232 327.331C314.993 327.293 314.771 327.25 314.535 327.212C312.889 326.941 311.319 326.645 309.809 326.333C309.508 326.271 309.196 326.214 308.901 326.149C307.309 325.81 305.772 325.452 304.261 325.083C303.866 324.986 303.467 324.888 303.074 324.788C301.634 324.427 300.205 324.064 298.766 323.69C284.45 319.628 269.61 317.7 254.731 317.972C239.87 317.698 225.049 319.628 210.755 323.703C197.377 327.543 183.498 329.354 169.583 329.077C155.661 329.354 141.776 327.543 128.39 323.706C127.015 323.348 125.624 322.99 124.214 322.635C123.829 322.537 123.444 322.443 123.054 322.345C121.552 321.974 120.012 321.61 118.407 321.26C118.155 321.204 117.889 321.152 117.631 321.098C116.148 320.783 114.6 320.482 112.987 320.198C112.689 320.146 112.404 320.089 112.1 320.038C110.319 319.737 108.429 319.466 106.444 319.216C106.244 319.192 106.076 319.159 105.872 319.135C119.922 289.136 163.084 267.996 212.162 267.996V267.996ZM102.198 329.902L102.407 329.926C104.555 330.146 106.537 330.411 108.426 330.699C108.695 330.742 108.979 330.777 109.245 330.821C111.067 331.113 112.781 331.433 114.437 331.775C114.771 331.843 115.107 331.911 115.435 331.984C117.035 332.325 118.583 332.681 120.099 333.052C120.448 333.139 120.793 333.226 121.14 333.312C122.628 333.687 124.106 334.066 125.592 334.454C139.891 338.524 154.717 340.454 169.583 340.183C184.444 340.457 199.265 338.524 213.559 334.451C226.937 330.609 240.816 328.798 254.731 329.077C268.67 328.801 282.571 330.609 295.976 334.44C296.96 334.695 297.949 334.95 298.947 335.205C299.327 335.303 299.715 335.397 300.097 335.492C300.78 335.666 301.466 335.837 302.166 336.005C302.572 336.102 302.993 336.2 303.407 336.298C304.099 336.46 304.798 336.62 305.511 336.777C305.953 336.875 306.403 336.97 306.856 337.065C307.567 337.217 308.293 337.363 309.033 337.507C309.511 337.599 309.993 337.691 310.481 337.781C311.246 337.919 312.035 338.055 312.832 338.185C313.331 338.266 313.827 338.347 314.34 338.426C315.202 338.559 316.102 338.678 317.013 338.8C317.504 338.865 317.984 338.933 318.493 338.993C319.556 339.12 320.671 339.234 321.804 339.345C322.213 339.383 322.596 339.429 323.016 339.467L323.216 339.489C323.219 339.616 323.219 339.746 323.219 339.874C323.208 343.437 322.785 346.986 321.958 350.451L321.733 350.424C319.624 350.204 317.677 349.941 315.817 349.656C315.53 349.61 315.229 349.572 314.947 349.526C313.155 349.236 311.466 348.919 309.836 348.583C309.484 348.512 309.134 348.439 308.787 348.366C307.214 348.027 305.685 347.674 304.191 347.308C303.83 347.219 303.472 347.127 303.115 347.037C301.645 346.668 300.189 346.294 298.719 345.912C284.42 341.84 269.597 339.909 254.731 340.183C239.87 339.909 225.049 341.84 210.755 345.915C197.377 349.754 183.498 351.565 169.583 351.289C155.647 351.562 141.746 349.754 128.344 345.926C127.338 345.665 126.327 345.402 125.307 345.142C125.006 345.066 124.694 344.99 124.388 344.912C123.653 344.727 122.913 344.543 122.157 344.358C121.739 344.258 121.308 344.16 120.882 344.06C120.215 343.903 119.543 343.748 118.857 343.597C118.385 343.491 117.9 343.39 117.414 343.287C116.745 343.146 116.061 343.008 115.367 342.873C114.847 342.77 114.321 342.672 113.784 342.574C113.084 342.447 112.363 342.325 111.634 342.203C111.07 342.111 110.506 342.016 109.92 341.929C109.169 341.812 108.383 341.707 107.594 341.604C106.987 341.522 106.387 341.438 105.758 341.362C104.888 341.259 103.972 341.167 103.055 341.075C102.459 341.015 101.887 340.948 101.266 340.893L101.125 340.88C101.114 340.544 101.106 340.207 101.106 339.874C101.111 336.52 101.477 333.177 102.198 329.902V329.902Z" fill="black"/>
<path d="M153.635 376.55C151.352 375.371 149.183 374.132 147.128 372.833C144.533 371.209 141.114 371.993 139.485 374.582C137.855 377.171 138.628 380.593 141.212 382.231C143.522 383.687 145.959 385.08 148.527 386.414C151.252 387.824 154.603 386.759 156.013 384.036C157.423 381.311 156.36 377.96 153.635 376.55V376.55Z" fill="black"/>
<path d="M284.564 367.511C267.208 381.512 240.819 389.54 212.162 389.54C197.678 389.657 183.268 387.491 169.459 383.12C166.547 382.176 163.421 383.771 162.472 386.683C161.523 389.595 163.111 392.723 166.021 393.678C180.939 398.412 196.51 400.763 212.162 400.646C243.31 400.646 272.24 391.72 291.537 376.154C293.923 374.227 294.297 370.732 292.372 368.346C290.447 365.957 286.95 365.583 284.564 367.511V367.511Z" fill="black"/>
<path d="M248.787 177.654C248.175 175.466 247.654 173.305 247.228 171.174C246.626 168.167 243.701 166.218 240.694 166.82C237.687 167.421 235.738 170.347 236.34 173.354C236.819 175.748 237.405 178.177 238.094 180.647C238.921 183.6 241.985 185.322 244.937 184.498C247.89 183.671 249.614 180.607 248.787 177.654Z" fill="black"/>
<path d="M357.667 273.549C357.857 270.488 355.528 267.852 352.466 267.665C329.632 266.258 302.542 252.479 281.771 231.705C271.313 221.375 262.61 209.407 256.008 196.273C254.641 193.532 251.317 192.415 248.573 193.773C245.829 195.131 244.704 198.456 246.057 201.202C253.196 215.418 262.607 228.373 273.919 239.557C296.868 262.508 325.977 277.161 351.783 278.749C351.9 278.758 352.016 278.76 352.13 278.76C355.061 278.755 357.485 276.475 357.667 273.549Z" fill="black"/>
</g>
</g>
<defs>
<filter id="filter0_d_6_3" x="-4" y="0" width="520" height="520" filterUnits="userSpaceOnUse" color-interpolation-filters="sRGB">
<feFlood flood-opacity="0" result="BackgroundImageFix"/>
<feColorMatrix in="SourceAlpha" type="matrix" values="0 0 0 0 0 0 0 0 0 0 0 0 0 0 0 0 0 0 127 0" result="hardAlpha"/>
<feOffset dy="4"/>
<feGaussianBlur stdDeviation="2"/>
<feComposite in2="hardAlpha" operator="out"/>
<feColorMatrix type="matrix" values="0 0 0 0 0 0 0 0 0 0 0 0 0 0 0 0 0 0 0.25 0"/>
<feBlend mode="normal" in2="BackgroundImageFix" result="effect1_dropShadow_6_3"/>
<feBlend mode="normal" in="SourceGraphic" in2="effect1_dropShadow_6_3" result="shape"/>
</filter>
<filter id="filter1_dddddd_6_3" x="-36" y="-40" width="584" height="584" filterUnits="userSpaceOnUse" color-interpolation-filters="sRGB">
<feFlood flood-opacity="0" result="BackgroundImageFix"/>
<feColorMatrix in="SourceAlpha" type="matrix" values="0 0 0 0 0 0 0 0 0 0 0 0 0 0 0 0 0 0 127 0" result="hardAlpha"/>
<feOffset dy="-0.11069"/>
<feGaussianBlur stdDeviation="1.1069"/>
<feColorMatrix type="matrix" values="0 0 0 0 0 0 0 0 0 0 0 0 0 0 0 0 0 0 0.07 0"/>
<feBlend mode="normal" in2="BackgroundImageFix" result="effect1_dropShadow_6_3"/>
<feColorMatrix in="SourceAlpha" type="matrix" values="0 0 0 0 0 0 0 0 0 0 0 0 0 0 0 0 0 0 127 0" result="hardAlpha"/>
<feOffset dy="-0.266004"/>
<feGaussianBlur stdDeviation="2.66004"/>
<feColorMatrix type="matrix" values="0 0 0 0 0 0 0 0 0 0 0 0 0 0 0 0 0 0 0.0503198 0"/>
<feBlend mode="normal" in2="effect1_dropShadow_6_3" result="effect2_dropShadow_6_3"/>
<feColorMatrix in="SourceAlpha" type="matrix" values="0 0 0 0 0 0 0 0 0 0 0 0 0 0 0 0 0 0 127 0" result="hardAlpha"/>
<feOffset dy="-0.500862"/>
<feGaussianBlur stdDeviation="5.00862"/>
<feColorMatrix type="matrix" values="0 0 0 0 0 0 0 0 0 0 0 0 0 0 0 0 0 0 0.0417275 0"/>
<feBlend mode="normal" in2="effect2_dropShadow_6_3" result="effect3_dropShadow_6_3"/>
<feColorMatrix in="SourceAlpha" type="matrix" values="0 0 0 0 0 0 0 0 0 0 0 0 0 0 0 0 0 0 127 0" result="hardAlpha"/>
<feOffset dy="-0.893452"/>
<feGaussianBlur stdDeviation="8.93452"/>
<feColorMatrix type="matrix" values="0 0 0 0 0 0 0 0 0 0 0 0 0 0 0 0 0 0 0.035 0"/>
<feBlend mode="normal" in2="effect3_dropShadow_6_3" result="effect4_dropShadow_6_3"/>
<feColorMatrix in="SourceAlpha" type="matrix" values="0 0 0 0 0 0 0 0 0 0 0 0 0 0 0 0 0 0 127 0" result="hardAlpha"/>
<feOffset dy="-1.6711"/>
<feGaussianBlur stdDeviation="16.711"/>
<feColorMatrix type="matrix" values="0 0 0 0 0 0 0 0 0 0 0 0 0 0 0 0 0 0 0.0282725 0"/>
<feBlend mode="normal" in2="effect4_dropShadow_6_3" result="effect5_dropShadow_6_3"/>
<feColorMatrix in="SourceAlpha" type="matrix" values="0 0 0 0 0 0 0 0 0 0 0 0 0 0 0 0 0 0 127 0" result="hardAlpha"/>
<feOffset dy="-4"/>
<feGaussianBlur stdDeviation="40"/>
<feColorMatrix type="matrix" values="0 0 0 0 0 0 0 0 0 0 0 0 0 0 0 0 0 0 0.0196802 0"/>
<feBlend mode="normal" in2="effect5_dropShadow_6_3" result="effect6_dropShadow_6_3"/>
<feBlend mode="normal" in="SourceGraphic" in2="effect6_dropShadow_6_3" result="shape"/>
</filter>
<clipPath id="clip0_6_3">
<rect width="512" height="512" fill="white"/>
</clipPath>
<clipPath id="clip1_6_3">
<rect width="333" height="333" fill="white" transform="translate(90 90)"/>
</clipPath>
</defs>
</svg>
